<svg xmlns="http://www.w3.org/2000/svg" xmlns:xlink="http://www.w3.org/1999/xlink" version="1.1" id="Layer_1" x="0px" y="0px" viewBox="0 0 512 512" style="enable-background:new 0 0 512 512;" xml:space="preserve" width="512px" height="512px">
<g>
	<g>
		<g>
			<path d="M256,0C114.833,0,0,114.844,0,256s114.833,256,256,256s256-114.844,256-256S397.167,0,256,0z M256,490.667     C126.604,490.667,21.333,385.396,21.333,256S126.604,21.333,256,21.333S490.667,126.604,490.667,256S385.396,490.667,256,490.667     z" fill="#000000"/>
			<path d="M256,85.333c-5.896,0-10.667,4.771-10.667,10.667v256c0,5.896,4.771,10.667,10.667,10.667s10.667-4.771,10.667-10.667V96     C266.667,90.104,261.896,85.333,256,85.333z" fill="#000000"/>
			<circle cx="256" cy="416" r="10.667" fill="#000000"/>
		</g>
	</g>
</g>
</svg>
