<svg xmlns="http://www.w3.org/2000/svg" xmlns:xlink="http://www.w3.org/1999/xlink" version="1.1" id="Capa_1" x="0px" y="0px" viewBox="0 0 512 512" style="enable-background:new 0 0 512 512;" xml:space="preserve" width="512px" height="512px">
<g>
	<g>
		<g>
			<path d="M469.333,42.667h-42.667c-2.264-0.001-4.435,0.897-6.035,2.498s-2.499,3.772-2.498,6.035c0,14.138-11.462,25.6-25.6,25.6     c-14.138,0-25.6-11.461-25.6-25.6c0.001-2.264-0.897-4.435-2.498-6.035s-3.772-2.499-6.035-2.498H153.6     c-2.264-0.001-4.435,0.897-6.035,2.498s-2.499,3.772-2.498,6.035c0,14.138-11.461,25.6-25.6,25.6s-25.6-11.461-25.6-25.6     c0.001-2.264-0.897-4.435-2.498-6.035c-1.601-1.601-3.772-2.499-6.035-2.498H42.667C19.114,42.694,0.028,61.781,0,85.333v341.333     c0.028,23.553,19.114,42.639,42.667,42.667h104.104c61.709,56.889,156.75,56.889,218.458,0h104.104     c23.553-0.028,42.639-19.114,42.667-42.667V85.333C511.972,61.781,492.886,42.694,469.333,42.667z M256,494.933     c-80.081-0.089-144.977-64.986-145.067-145.067c0-80.118,64.949-145.067,145.067-145.067s145.067,64.949,145.067,145.067     S336.118,494.933,256,494.933z M494.933,153.6H460.8c-4.713,0-8.533,3.82-8.533,8.533s3.821,8.533,8.533,8.533h34.133v256     c-0.015,14.132-11.468,25.585-25.6,25.6h-87.767c53.982-66.086,47.501-162.704-14.824-220.988s-159.16-58.284-221.485,0     c-62.325,58.284-68.806,154.902-14.824,220.988H42.667c-14.132-0.015-25.585-11.468-25.6-25.6v-256H409.6     c4.713,0,8.533-3.82,8.533-8.533s-3.82-8.533-8.533-8.533H17.067V85.333c0.015-14.132,11.468-25.585,25.6-25.6h34.992     c4.057,19.866,21.533,34.133,41.808,34.133s37.751-14.268,41.808-34.133h189.45c4.057,19.866,21.533,34.133,41.808,34.133     c20.276,0,37.751-14.268,41.808-34.133h34.992c14.132,0.015,25.585,11.468,25.6,25.6V153.6z" fill="#000000"/>
			<path d="M119.467,59.733c4.713,0,8.533-3.82,8.533-8.533V8.533C128,3.82,124.18,0,119.467,0s-8.533,3.82-8.533,8.533V51.2     C110.933,55.913,114.754,59.733,119.467,59.733z" fill="#000000"/>
			<path d="M392.533,59.733c4.713,0,8.533-3.82,8.533-8.533V8.533c0-4.713-3.821-8.533-8.533-8.533C387.821,0,384,3.82,384,8.533     V51.2C384,55.913,387.821,59.733,392.533,59.733z" fill="#000000"/>
			<path d="M264.533,346.333v-107.4c0-4.713-3.82-8.533-8.533-8.533s-8.533,3.82-8.533,8.533v110.933c0,2.263,0.899,4.434,2.5,6.033     l42.667,42.667c3.341,3.281,8.701,3.256,12.012-0.054c3.311-3.311,3.335-8.671,0.054-12.012L264.533,346.333z" fill="#000000"/>
		</g>
	</g>
</g>
</svg>
