<svg xmlns="http://www.w3.org/2000/svg" xmlns:xlink="http://www.w3.org/1999/xlink" version="1.1" id="Layer_1" x="0px" y="0px" viewBox="0 0 512 512" style="enable-background:new 0 0 512 512;" xml:space="preserve" width="512px" height="512px">
<g>
	<g>
		<path d="M418.133,89.6c-51.842,0-93.867,42.024-93.867,93.867c0,31.701,15.716,59.729,39.78,76.724l-65.583,72.773    C289.415,324.905,277.497,320,264.429,320c-8.842,0-17.16,2.241-24.417,6.186l-41.504-41.504    c3.946-7.258,6.187-15.575,6.187-24.416c0-28.273-22.927-51.2-51.2-51.2c-28.279,0-51.2,22.924-51.2,51.2    c0,8.84,2.241,17.157,6.185,24.414l-32.866,32.866c-7.257-3.944-15.574-6.185-24.414-6.185c-28.276,0-51.2,22.921-51.2,51.2    c0,28.273,22.927,51.2,51.2,51.2s51.2-22.927,51.2-51.2c0-13.24-5.026-25.305-13.272-34.393l29.975-29.975    c9.089,8.247,21.153,13.272,34.393,13.272c13.237,0,25.3-5.026,34.389-13.272l38.614,38.614    c-8.246,9.089-13.27,21.153-13.27,34.391c0,28.276,22.921,51.2,51.2,51.2c28.273,0,51.2-22.927,51.2-51.2    c0-8.969-2.313-17.395-6.366-24.727l69.917-77.582c11.866,5.419,25.056,8.443,38.953,8.443c51.842,0,93.867-42.024,93.867-93.867    C512,131.624,469.976,89.6,418.133,89.6z M51.2,396.696c-18.848,0-34.133-15.286-34.133-34.133    c0-18.853,15.282-34.133,34.133-34.133c7.194,0,13.865,2.231,19.369,6.031c0.033,0.034,0.061,0.071,0.095,0.105    c0.633,0.633,1.34,1.144,2.094,1.536c7.673,6.259,12.576,15.785,12.576,26.461C85.333,381.41,70.048,396.696,51.2,396.696z     M153.496,294.4c-10.672,0-20.196-4.899-26.455-12.568c-0.393-0.757-0.905-1.468-1.54-2.103c-0.036-0.036-0.076-0.067-0.113-0.102    c-3.797-5.502-6.025-12.169-6.025-19.359c0-18.851,15.28-34.133,34.133-34.133c18.848,0,34.133,15.286,34.133,34.133    c0,7.186-2.227,13.85-6.021,19.35c-0.04,0.038-0.083,0.071-0.122,0.111c-0.638,0.638-1.151,1.352-1.545,2.113    C173.681,289.504,164.16,294.4,153.496,294.4z M264.429,405.333c-18.853,0-34.133-15.282-34.133-34.133    c0-10.665,4.893-20.185,12.555-26.444c0.762-0.394,1.478-0.908,2.117-1.547c0.04-0.04,0.074-0.085,0.113-0.125    c5.5-3.792,12.163-6.017,19.348-6.017c18.848,0,34.133,15.286,34.133,34.133C298.563,390.048,283.277,405.333,264.429,405.333z     M494.45,174.933h-67.784V107.15C462.262,111.086,490.514,139.338,494.45,174.933z M418.133,260.267    c-42.417,0-76.8-34.383-76.8-76.8c0-39.531,29.868-72.07,68.267-76.317v76.317c0,4.713,3.82,8.533,8.533,8.533h76.317    C490.204,230.399,457.664,260.267,418.133,260.267z" fill="#000000"/>
	</g>
</g>
</svg>
