<svg xmlns="http://www.w3.org/2000/svg" xmlns:xlink="http://www.w3.org/1999/xlink" version="1.1" id="Capa_1" x="0px" y="0px" viewBox="0 0 512 512" style="enable-background:new 0 0 512 512;" xml:space="preserve" width="512px" height="512px">
<g>
	<g>
		<path d="M488.468,52.105H23.532C10.557,52.105,0,62.662,0,75.637v336.677c0,12.976,10.557,23.532,23.532,23.532h288.581    c4.142,0,7.5-3.358,7.5-7.5c0-4.142-3.358-7.5-7.5-7.5H23.532c-4.705,0-8.532-3.828-8.532-8.532V75.637    c0-4.704,3.828-8.532,8.532-8.532h464.936c4.705,0,8.532,3.828,8.532,8.532v336.677c0,4.705-3.828,8.532-8.532,8.532h-64.129    c-4.142,0-7.5,3.358-7.5,7.5c0,4.142,3.358,7.5,7.5,7.5h64.129c12.976,0,23.532-10.557,23.532-23.532V75.637    C512,62.662,501.443,52.105,488.468,52.105z" fill="#000000"/>
	</g>
</g>
<g>
	<g>
		<path d="M472.436,132.266c-22.385,0-40.597-18.211-40.597-40.597c0-4.142-3.358-7.5-7.5-7.5H87.661c-4.142,0-7.5,3.358-7.5,7.5    c0,22.385-18.211,40.597-40.597,40.597c-4.142,0-7.5,3.358-7.5,7.5v208.419c0,4.142,3.358,7.5,7.5,7.5    c22.386,0.001,40.597,18.212,40.597,40.597c0,4.142,3.358,7.5,7.5,7.5h224.452c4.142,0,7.5-3.358,7.5-7.5    c0-4.142-3.358-7.5-7.5-7.5H94.657c-3.341-24.669-22.923-44.252-47.593-47.593V146.762c24.669-3.341,44.252-22.923,47.593-47.593    h322.686c3.341,24.669,22.923,44.252,47.593,47.593v194.427c-27.123,3.673-48.097,26.979-48.097,55.093c0,4.142,3.358,7.5,7.5,7.5    c4.142,0,7.5-3.358,7.5-7.5c0-22.385,18.211-40.597,40.597-40.597c4.142,0,7.5-3.358,7.5-7.5V139.766    C479.936,135.624,476.578,132.266,472.436,132.266z" fill="#000000"/>
	</g>
</g>
<g>
	<g>
		<path d="M39.645,84.169h-0.08c-4.142,0-7.46,3.358-7.46,7.5c0,4.142,3.397,7.5,7.54,7.5c4.142,0,7.5-3.358,7.5-7.5    C47.145,87.527,43.787,84.169,39.645,84.169z" fill="#000000"/>
	</g>
</g>
<g>
	<g>
		<path d="M472.516,388.782h-0.08c-4.142,0-7.46,3.358-7.46,7.5c0,4.142,3.398,7.5,7.54,7.5c4.142,0,7.5-3.358,7.5-7.5    C480.016,392.14,476.658,388.782,472.516,388.782z" fill="#000000"/>
	</g>
</g>
<g>
	<g>
		<path d="M39.644,388.782h-0.08c-4.142,0-7.46,3.358-7.46,7.5c0,4.142,3.398,7.5,7.54,7.5c4.142,0,7.5-3.358,7.5-7.5    C47.144,392.14,43.786,388.782,39.644,388.782z" fill="#000000"/>
	</g>
</g>
<g>
	<g>
		<path d="M472.436,84.169h-0.08c-4.142,0-7.46,3.358-7.46,7.5c0,4.142,3.398,7.5,7.54,7.5c4.142,0,7.5-3.357,7.5-7.5    C479.936,87.527,476.578,84.169,472.436,84.169z" fill="#000000"/>
	</g>
</g>
<g>
	<g>
		<path d="M368.226,260.524c-30.656,0-55.597,24.94-55.597,55.597c0,18.947,9.533,35.702,24.048,45.743v90.531    c0,2.766,1.522,5.308,3.961,6.613c1.109,0.593,2.325,0.887,3.539,0.887c1.455,0,2.906-0.423,4.161-1.26l19.888-13.259    l19.889,13.259c2.301,1.534,5.26,1.677,7.699,0.372c2.438-1.305,3.961-3.846,3.961-6.612v-90.531    c14.514-10.041,24.048-26.796,24.048-45.743C423.823,285.465,398.882,260.524,368.226,260.524z M384.774,438.381l-12.389-8.259    c-2.52-1.68-5.802-1.68-8.32,0l-12.388,8.259v-69.179c5.229,1.634,10.788,2.515,16.548,2.515c5.761,0,11.319-0.882,16.549-2.515    V438.381z M368.226,356.718c-22.385,0-40.597-18.212-40.597-40.597s18.211-40.597,40.597-40.597    c22.386,0,40.597,18.211,40.597,40.597S390.611,356.718,368.226,356.718z" fill="#000000"/>
	</g>
</g>
<g>
	<g>
		<path d="M385.869,317.652c-3.583-2.076-8.173-0.853-10.249,2.732c-1.525,2.633-4.358,4.269-7.394,4.269    c-4.705,0-8.532-3.828-8.532-8.532c0-3.037,1.636-5.87,4.27-7.395c3.585-2.075,4.809-6.663,2.734-10.248    c-2.074-3.585-6.663-4.81-10.248-2.734c-7.251,4.197-11.756,12.005-11.756,20.377c-0.001,12.976,10.556,23.532,23.532,23.532    c8.37,0,16.177-4.503,20.375-11.752C390.677,324.317,389.454,319.728,385.869,317.652z" fill="#000000"/>
	</g>
</g>
<g>
	<g>
		<path d="M312.113,140.282H199.887c-4.142,0-7.5,3.358-7.5,7.5c0,4.142,3.358,7.5,7.5,7.5h112.226c4.142,0,7.5-3.358,7.5-7.5    C319.613,143.64,316.255,140.282,312.113,140.282z" fill="#000000"/>
	</g>
</g>
<g>
	<g>
		<path d="M199.887,172.347h-32.064c-4.142,0-7.5,3.358-7.5,7.5c0,4.142,3.358,7.5,7.5,7.5h32.064c4.142,0,7.5-3.358,7.5-7.5    C207.387,175.705,204.029,172.347,199.887,172.347z" fill="#000000"/>
	</g>
</g>
<g>
	<g>
		<path d="M344.178,172.347H231.955c-4.142,0-7.5,3.358-7.5,7.5c0,4.142,3.358,7.5,7.5,7.5h112.223c4.142,0,7.5-3.358,7.5-7.5    C351.678,175.705,348.32,172.347,344.178,172.347z" fill="#000000"/>
	</g>
</g>
<g>
	<g>
		<path d="M392.274,228.459H119.726c-4.142,0-7.5,3.358-7.5,7.5c0,4.142,3.358,7.5,7.5,7.5h272.549c4.142,0,7.499-3.357,7.499-7.5    C399.774,231.817,396.416,228.459,392.274,228.459z" fill="#000000"/>
	</g>
</g>
<g>
	<g>
		<path d="M304.097,260.524h-120.24c-4.142,0-7.5,3.358-7.5,7.5c0,4.142,3.358,7.5,7.5,7.5h120.24c4.142,0,7.5-3.357,7.5-7.5    C311.597,263.882,308.239,260.524,304.097,260.524z" fill="#000000"/>
	</g>
</g>
<g>
	<g>
		<path d="M151.789,260.524h-32.063c-4.142,0-7.5,3.358-7.5,7.5c0,4.142,3.357,7.5,7.5,7.5h32.063c4.142,0,7.5-3.358,7.5-7.5    C159.289,263.882,155.931,260.524,151.789,260.524z" fill="#000000"/>
	</g>
</g>
<g>
	<g>
		<path d="M288.064,292.589H119.726c-4.142,0-7.5,3.358-7.5,7.5c0,4.142,3.358,7.5,7.5,7.5h168.339c4.142,0,7.5-3.358,7.5-7.5    C295.565,295.947,292.207,292.589,288.064,292.589z" fill="#000000"/>
	</g>
</g>
<g>
	<g>
		<path d="M231.952,324.653H119.726c-4.142,0-7.5,3.358-7.5,7.5c0,4.142,3.358,7.5,7.5,7.5h112.226c4.142,0,7.5-3.358,7.5-7.5    C239.452,328.011,236.094,324.653,231.952,324.653z" fill="#000000"/>
	</g>
</g>
<g>
	<g>
		<path d="M288.064,324.653h-24.052c-4.142,0-7.5,3.358-7.5,7.5c0,4.142,3.358,7.5,7.5,7.5h24.052c4.142,0,7.5-3.358,7.5-7.5    C295.564,328.011,292.207,324.653,288.064,324.653z" fill="#000000"/>
	</g>
</g>
</svg>
