<?xml version="1.0" encoding="iso-8859-1"?>
<!-- Generator: Adobe Illustrator 19.0.0, SVG Export Plug-In . SVG Version: 6.00 Build 0)  -->
<svg version="1.1" id="Layer_1" xmlns="http://www.w3.org/2000/svg" xmlns:xlink="http://www.w3.org/1999/xlink" x="0px" y="0px"
	 viewBox="0 0 511.999 511.999" style="enable-background:new 0 0 511.999 511.999;" xml:space="preserve">
<g>
	<g>
		<path d="M130.192,61.138H86.034c-4.602,0-8.332,3.731-8.332,8.332v44.158c0,4.602,3.731,8.332,8.332,8.332h44.158
			c4.602,0,8.332-3.731,8.332-8.332V69.47C138.524,64.869,134.794,61.138,130.192,61.138z M121.86,105.296H94.366V77.803h27.494
			V105.296z"/>
	</g>
</g>
<g>
	<g>
		<path d="M425.968,61.138H381.81c-4.602,0-8.332,3.731-8.332,8.332v44.158c0,4.602,3.731,8.332,8.332,8.332h44.158
			c4.602,0,8.332-3.731,8.332-8.332V69.47C434.3,64.869,430.57,61.138,425.968,61.138z M417.636,105.296h-27.494V77.803h27.494
			V105.296z"/>
	</g>
</g>
<g>
	<g>
		<path d="M130.192,265.265H86.034c-4.602,0-8.332,3.731-8.332,8.332v44.158c0,4.602,3.731,8.332,8.332,8.332h44.158
			c4.602,0,8.332-3.731,8.332-8.332v-44.158C138.524,268.996,134.794,265.265,130.192,265.265z M121.86,309.423H94.366V281.93
			h27.494V309.423z"/>
	</g>
</g>
<g>
	<g>
		<path d="M425.968,265.265H381.81c-4.602,0-8.332,3.731-8.332,8.332v44.158c0,4.602,3.731,8.332,8.332,8.332h44.158
			c4.602,0,8.332-3.731,8.332-8.332v-44.158C434.3,268.996,430.57,265.265,425.968,265.265z M417.636,309.423h-27.494V281.93h27.494
			V309.423z"/>
	</g>
</g>
<g>
	<g>
		<path d="M201.368,83.218h-43.305c-4.602,0-8.332,3.731-8.332,8.332s3.731,8.332,8.332,8.332h43.305
			c4.602,0,8.332-3.731,8.332-8.332S205.97,83.218,201.368,83.218z"/>
	</g>
</g>
<g>
	<g>
		<path d="M353.934,83.218H229.141c-4.602,0-8.332,3.731-8.332,8.332s3.731,8.332,8.332,8.332h124.793
			c4.602,0,8.332-3.731,8.332-8.332S358.536,83.218,353.934,83.218z"/>
	</g>
</g>
<g>
	<g>
		<path d="M353.934,287.343H158.063c-4.602,0-8.332,3.731-8.332,8.332s3.731,8.332,8.332,8.332h195.872
			c4.602,0,8.332-3.731,8.332-8.332S358.536,287.343,353.934,287.343z"/>
	</g>
</g>
<g>
	<g>
		<path d="M403.895,132.056c-4.602,0-8.332,3.731-8.332,8.332v106.451c0,4.602,3.731,8.332,8.332,8.332
			c4.602,0,8.332-3.731,8.332-8.332V140.388C412.227,135.786,408.496,132.056,403.895,132.056z"/>
	</g>
</g>
<g>
	<g>
		<path d="M108.114,132.056c-4.602,0-8.332,3.731-8.332,8.332v106.451c0,4.602,3.731,8.332,8.332,8.332
			c4.602,0,8.332-3.731,8.332-8.332V140.388C116.446,135.786,112.716,132.056,108.114,132.056z"/>
	</g>
</g>
<g>
	<g>
		<path d="M226.495,124.459h-68.32c-4.602,0-8.332,3.731-8.332,8.332v121.643c0,4.602,3.731,8.332,8.332,8.332h68.32
			c4.602,0,8.332-3.731,8.332-8.332V132.791C234.827,128.19,231.096,124.459,226.495,124.459z M212.26,141.123l-19.925,35.475
			l-19.924-35.475H212.26z M166.507,164.642l16.272,28.971l-16.272,28.971V164.642z M172.411,246.103l19.924-35.475l19.925,35.475
			H172.411z M218.164,222.585l-16.272-28.971l16.272-28.971V222.585z"/>
	</g>
</g>
<g>
	<g>
		<path d="M348.139,124.459h-79.985c-4.602,0-8.332,3.731-8.332,8.332c0,4.601,3.729,8.332,8.332,8.332h79.985
			c4.602,0,8.332-3.731,8.332-8.332C356.471,128.19,352.741,124.459,348.139,124.459z"/>
	</g>
</g>
<g>
	<g>
		<path d="M348.139,205.555h-79.985c-4.602,0-8.332,3.731-8.332,8.332c0,4.602,3.729,8.332,8.332,8.332h79.985
			c4.602,0,8.332-3.731,8.332-8.332C356.471,209.286,352.741,205.555,348.139,205.555z"/>
	</g>
</g>
<g>
	<g>
		<path d="M348.139,165.007h-79.985c-4.602,0-8.332,3.731-8.332,8.332s3.729,8.332,8.332,8.332h79.985
			c4.602,0,8.332-3.731,8.332-8.332S352.741,165.007,348.139,165.007z"/>
	</g>
</g>
<g>
	<g>
		<path d="M348.139,246.103h-79.985c-4.602,0-8.332,3.731-8.332,8.332c0,4.602,3.729,8.332,8.332,8.332h79.985
			c4.602,0,8.332-3.731,8.332-8.332C356.471,249.833,352.741,246.103,348.139,246.103z"/>
	</g>
</g>
<g>
	<g>
		<path d="M471.246,24.766H40.754C18.283,24.766,0,43.049,0,65.52v59.227c0,4.602,3.731,8.332,8.332,8.332
			c4.601,0,8.332-3.731,8.332-8.332V65.52c0-13.284,10.807-24.09,24.09-24.09h430.492c13.284,0,24.09,10.807,24.09,24.09v284.411
			h-52.21c-4.602,0-8.332,3.731-8.332,8.332s3.731,8.332,8.332,8.332h52.21v15.273c0,13.284-10.807,24.09-24.09,24.09h-155.41
			H196.164H40.754c-13.284,0-24.09-10.807-24.09-24.09v-15.273h398.688c4.602,0,8.332-3.731,8.332-8.332s-3.731-8.332-8.332-8.332
			H16.664V152.522c0-4.602-3.731-8.332-8.332-8.332c-4.601,0-8.332,3.73-8.332,8.332V381.87c0,22.472,18.283,40.754,40.754,40.754
			H183.54l-20.494,47.945h-40.034c-4.602,0-8.332,3.731-8.332,8.332s3.731,8.332,8.332,8.332h265.975
			c4.602,0,8.332-3.731,8.332-8.332s-3.731-8.332-8.332-8.332h-40.034l-20.494-47.945h142.786c22.472,0,40.754-18.282,40.754-40.754
			V65.52C512,43.049,493.717,24.766,471.246,24.766z M330.83,470.568H181.17l14.238-33.31h121.185L330.83,470.568z"/>
	</g>
</g>
<g>
	<g>
		<path d="M262.924,379.679c-1.914-2.906-5.583-4.299-8.952-3.457c-3.517,0.879-6.116,4.048-6.291,7.67
			c-0.364,7.534,9.106,11.629,14.33,6.172C264.674,387.282,265.089,382.887,262.924,379.679z"/>
	</g>
</g>
<g>
</g>
<g>
</g>
<g>
</g>
<g>
</g>
<g>
</g>
<g>
</g>
<g>
</g>
<g>
</g>
<g>
</g>
<g>
</g>
<g>
</g>
<g>
</g>
<g>
</g>
<g>
</g>
<g>
</g>
</svg>
