<?xml version="1.0" encoding="iso-8859-1"?>
<!-- Generator: Adobe Illustrator 19.0.0, SVG Export Plug-In . SVG Version: 6.00 Build 0)  -->
<svg version="1.1" id="Capa_1" xmlns="http://www.w3.org/2000/svg" xmlns:xlink="http://www.w3.org/1999/xlink" x="0px" y="0px"
	 viewBox="0 0 480 480" style="enable-background:new 0 0 480 480;" xml:space="preserve">
<g>
	<g>
		<path d="M344,0H136c-22.08,0.026-39.974,17.92-40,40v400c0.026,22.08,17.92,39.974,40,40h208c22.08-0.026,39.974-17.92,40-40V40
			C383.974,17.92,366.08,0.026,344,0z M368,440c0,13.255-10.745,24-24,24H136c-13.255,0-24-10.745-24-24v-8h256V440z M368,416H112
			V64h256V416z M368,48H112v-8c0-13.255,10.745-24,24-24h208c13.255,0,24,10.745,24,24V48z"/>
	</g>
</g>
<g>
	<g>
		<path d="M216,24h-8c-4.418,0-8,3.582-8,8s3.582,8,8,8h8c4.418,0,8-3.582,8-8S220.418,24,216,24z"/>
	</g>
</g>
<g>
	<g>
		<path d="M272,24h-32c-4.418,0-8,3.582-8,8s3.582,8,8,8h32c4.418,0,8-3.582,8-8S276.418,24,272,24z"/>
	</g>
</g>
<g>
	<g>
		<path d="M256,440h-32c-4.418,0-8,3.582-8,8s3.582,8,8,8h32c4.418,0,8-3.582,8-8S260.418,440,256,440z"/>
	</g>
</g>
<g>
	<g>
		<path d="M344,264v-48h-27.656c-1.41-4.481-3.215-8.829-5.392-12.992l19.56-19.568l-33.952-33.952L277,169.048
			c-4.168-2.175-8.518-3.982-13-5.4V136h-48v27.648c-4.482,1.418-8.832,3.225-13,5.4l-19.56-19.56l-33.952,33.952l19.56,19.568
			c-2.177,4.163-3.982,8.511-5.392,12.992H136v48h27.656c1.41,4.481,3.215,8.829,5.392,12.992l-19.56,19.568l33.952,33.952
			l19.56-19.56c4.168,2.175,8.518,3.982,13,5.4V344h48v-27.648c4.482-1.418,8.832-3.225,13-5.4l19.56,19.56l33.952-33.952
			l-19.56-19.568c2.177-4.163,3.982-8.511,5.392-12.992H344z M307.888,296.56l-11.328,11.328l-17.104-17.104l-5.408,3.408
			c-6.112,3.835-12.82,6.625-19.848,8.256l-6.2,1.424V328h-16v-24.128l-6.2-1.424c-7.029-1.631-13.736-4.421-19.848-8.256
			l-5.408-3.408l-17.104,17.104l-11.328-11.328l17.104-17.096l-3.408-5.408c-3.834-6.115-6.624-12.825-8.256-19.856l-1.424-6.2H152
			v-16h24.128l1.424-6.2c1.632-7.031,4.422-13.741,8.256-19.856l3.408-5.408l-17.104-17.096l11.328-11.328l17.104,17.104
			l5.408-3.408c6.112-3.835,12.82-6.625,19.848-8.256l6.2-1.424V152h16v24.128l6.2,1.424c7.029,1.631,13.736,4.421,19.848,8.256
			l5.408,3.408l17.104-17.104l11.328,11.328l-17.104,17.096l3.408,5.408c3.834,6.115,6.624,12.825,8.256,19.856l1.424,6.2H328v16
			h-24.128l-1.424,6.2c-1.632,7.031-4.422,13.741-8.256,19.856l-3.408,5.408L307.888,296.56z"/>
	</g>
</g>
<g>
	<g>
		<path d="M240,200c-22.091,0-40,17.909-40,40s17.909,40,40,40c22.091,0,40-17.909,40-40C279.974,217.92,262.08,200.026,240,200z
			 M240,264c-13.255,0-24-10.745-24-24s10.745-24,24-24s24,10.745,24,24S253.255,264,240,264z"/>
	</g>
</g>
<g>
</g>
<g>
</g>
<g>
</g>
<g>
</g>
<g>
</g>
<g>
</g>
<g>
</g>
<g>
</g>
<g>
</g>
<g>
</g>
<g>
</g>
<g>
</g>
<g>
</g>
<g>
</g>
<g>
</g>
</svg>
