<svg version="1.1" id="Capa_1" xmlns="http://www.w3.org/2000/svg" xmlns:xlink="http://www.w3.org/1999/xlink" x="0px" y="0px"
	 viewBox="0 0 512 512" style="enable-background:new 0 0 512 512;" xml:space="preserve">
<g>
	<path class="st0" d="M499.8,495.6L356.2,346.3c36.6-36.7,59.3-87.4,59.3-143.3c0-111.9-91.1-203-203-203S9.5,91.1,9.5,203
		s91.1,203,203,203c49.1,0,94.2-17.6,129.4-46.7l144,149.7c1.9,2,4.4,3,7,3c2.4,0,4.8-0.9,6.7-2.7
		C503.4,505.6,503.5,499.5,499.8,495.6z M28.8,203c0-101.3,82.4-183.7,183.7-183.7S396.2,101.7,396.2,203s-82.4,183.7-183.7,183.7
		S28.8,304.3,28.8,203z"/>
</g>
</svg>
