<?xml version="1.0" encoding="iso-8859-1"?>
<!-- Generator: Adobe Illustrator 19.0.0, SVG Export Plug-In . SVG Version: 6.00 Build 0)  -->
<svg version="1.1" id="Layer_1" xmlns="http://www.w3.org/2000/svg" xmlns:xlink="http://www.w3.org/1999/xlink" x="0px" y="0px"
	 viewBox="0 0 512 512" style="enable-background:new 0 0 512 512;" xml:space="preserve">
<circle style="fill:#FFFFFF;" cx="144.8" cy="174.212" r="55.8"/>
<path d="M74.528,174.212c0,38.816,31.472,70.288,70.288,70.288s70.288-31.472,70.288-70.288s-31.472-70.288-70.288-70.288
	S74.528,135.396,74.528,174.212z M102.384,174.212c0-23.432,18.992-42.424,42.424-42.424s42.424,18.992,42.424,42.424
	s-18.992,42.424-42.424,42.424S102.384,197.644,102.384,174.212z"/>
<path style="fill:#E21B1B;" d="M32.136,199.14c2.936,13.368,8.216,25.832,15.36,37.024l-20.488,25.032L57.712,291.9l25.008-20.464
	c11.2,7.168,23.696,12.472,37.072,15.424l3.216,32.072h21.704h0.184H166.6l3.216-32.072c13.392-2.952,25.872-8.248,37.08-15.424
	l25,20.456l30.704-30.704l-20.472-25.024c7.152-11.2,12.432-23.672,15.376-37.048l32.128-3.216v-43.416l-32.128-3.216
	c-2.952-13.376-8.24-25.848-15.376-37.04L262.6,87.204L231.896,56.5l-25,20.456c-11.2-7.16-23.68-12.464-37.072-15.424
	l-3.216-32.072h-21.704h-0.184h-21.704L119.8,61.532c-13.376,2.968-25.872,8.264-37.056,15.424l-25.016-20.44L27.024,87.22
	l20.488,25.024c-7.144,11.192-12.424,23.656-15.368,37.032L0,152.492v43.416L32.136,199.14z M74.536,174.196
	c0-38.816,31.472-70.288,70.288-70.288s70.288,31.472,70.288,70.288s-31.472,70.288-70.288,70.288S74.536,213.012,74.536,174.196z"
	/>
<rect x="153.2" y="473.596" width="358.768" height="8.944"/>
<rect x="156.032" y="228.484" width="353.2" height="251.208"/>
<g>
	<path style="fill:#999999;" d="M506.392,231.292v245.6H158.84v-245.6L506.392,231.292 M512,225.684H153.232v256.808H512V225.684
		L512,225.684z"/>
	<path style="fill:#999999;" d="M153.232,235.156v-44.664c0-6.168,5.048-11.208,11.208-11.208h336.32
		c6.168,0,11.208,5.048,11.208,11.208v44.656L153.232,235.156L153.232,235.156z"/>
</g>
<polygon points="483.704,222.644 273.432,222.644 293.544,191.812 483.704,191.812 "/>
<circle style="fill:#E21B1B;" cx="189.904" cy="206.804" r="8.408"/>
<circle style="fill:#CCCCCC;" cx="215.184" cy="206.804" r="8.408"/>
<circle style="fill:#FFFFFF;" cx="240.48" cy="206.804" r="8.408"/>
<g>
	<polygon style="fill:#999999;" points="393.36,476.796 271.872,476.796 288.688,464.012 376.544,464.012 	"/>
	<polygon style="fill:#999999;" points="512,473.556 512,482.5 153.232,482.5 153.232,473.556 	"/>
</g>
<g>
	<polygon style="fill:#FFFFFF;" points="461.792,216.332 459.792,214.372 466.72,207.252 459.376,200.092 461.336,198.084 
		470.688,207.196 	"/>
	<rect x="448.64" y="205.82" style="fill:#FFFFFF;" width="18.512" height="2.8"/>
	<path style="fill:#FFFFFF;" d="M304.888,213.908l-3.92-12.808h2.24l2.04,7.392l0.768,2.752c0.032-0.136,0.248-1.016,0.656-2.648
		l2.04-7.504h2.232l1.912,7.432l0.64,2.448l0.736-2.472l2.192-7.408h2.12l-4.008,12.808h-2.256l-2.04-7.664l-0.496-2.184
		l-2.592,9.856H304.888z"/>
	<path style="fill:#FFFFFF;" d="M322.72,213.908L318.8,201.1h2.24l2.04,7.392l0.768,2.752c0.032-0.136,0.248-1.016,0.656-2.648
		l2.04-7.504h2.232l1.912,7.432l0.64,2.448l0.736-2.472l2.192-7.408h2.12l-4.008,12.808h-2.256l-2.04-7.672l-0.496-2.184
		l-2.592,9.856h-2.264V213.908z"/>
	<path style="fill:#FFFFFF;" d="M340.56,213.908l-3.92-12.808h2.24l2.04,7.392l0.768,2.752c0.032-0.136,0.248-1.016,0.656-2.648
		l2.04-7.504h2.232l1.912,7.432l0.64,2.448l0.736-2.472l2.192-7.408h2.12l-4.008,12.808h-2.256l-2.04-7.672l-0.496-2.184
		l-2.592,9.856h-2.264V213.908z"/>
	<path style="fill:#FFFFFF;" d="M355.288,213.908v-2.472h2.48v2.472H355.288z"/>
</g>
<polygon style="fill:#E21B1B;" points="364.976,399.444 288.44,323.452 215.264,396.596 209.608,390.94 288.424,312.156 
	364.88,388.092 436.136,315.02 441.872,320.596 "/>
<circle style="fill:#FFFFFF;" cx="212.432" cy="393.756" r="26.504"/>
<circle cx="212.432" cy="393.756" r="11.664"/>
<circle style="fill:#FFFFFF;" cx="364.928" cy="393.756" r="26.504"/>
<circle cx="364.928" cy="393.756" r="11.664"/>
<circle style="fill:#FFFFFF;" cx="288.4" cy="317.804" r="36.968"/>
<circle cx="288.4" cy="317.804" r="16.272"/>
<circle style="fill:#FFFFFF;" cx="439" cy="317.804" r="36.968"/>
<circle cx="439" cy="317.804" r="16.272"/>
<g>
</g>
<g>
</g>
<g>
</g>
<g>
</g>
<g>
</g>
<g>
</g>
<g>
</g>
<g>
</g>
<g>
</g>
<g>
</g>
<g>
</g>
<g>
</g>
<g>
</g>
<g>
</g>
<g>
</g>
</svg>
