<?xml version="1.0" encoding="iso-8859-1"?>
<!-- Generator: Adobe Illustrator 19.0.0, SVG Export Plug-In . SVG Version: 6.00 Build 0)  -->
<svg version="1.1" id="Layer_1" xmlns="http://www.w3.org/2000/svg" xmlns:xlink="http://www.w3.org/1999/xlink" x="0px" y="0px"
	 viewBox="0 0 512 512" style="enable-background:new 0 0 512 512;" xml:space="preserve">
<path d="M473.56,439.888V145.536c0-7.04-5.76-12.8-12.8-12.8H51.32c-7.04,0-12.8,5.76-12.8,12.8v294.352
	C38.528,439.888,474.632,439.888,473.56,439.888z"/>
<rect x="54.52" y="148.736" style="fill:#FFFFFF;" width="403.04" height="275.152"/>
<rect y="439.888" style="fill:#D8D8D8;" width="511.912" height="8"/>
<polygon style="fill:#AAAAAA;" points="486.408,463.88 25.688,463.88 0.088,447.888 512,447.888 "/>
<g style="opacity:0.7;">
	<path style="fill:#FFFFFF;" d="M298.992,439.888H212.92c0.816,4.488,4.824,8,9.832,8h66.4
		C294.168,447.888,298.176,444.376,298.992,439.888z"/>
</g>
<circle style="fill:#FFFFFF;" cx="350.36" cy="135.416" r="32.32"/>
<path style="fill:#666666;" d="M119.24,205.144c0,23.416,18.984,42.4,42.4,42.4s42.4-18.984,42.4-42.4s-18.984-42.4-42.4-42.4
	S119.24,181.728,119.24,205.144z M136.048,205.144c0-14.136,11.456-25.592,25.592-25.592s25.592,11.456,25.592,25.592
	s-11.456,25.592-25.592,25.592S136.048,219.28,136.048,205.144z"/>
<path style="fill:#CCCCCC;" d="M93.664,220.184c1.776,8.064,4.952,15.584,9.264,22.336l-12.36,15.104l18.52,18.52l15.088-12.344
	c6.76,4.328,14.296,7.52,22.36,9.304l1.936,19.344h13.096h0.112h13.096l1.936-19.344c8.08-1.784,15.608-4.976,22.368-9.304
	l15.08,12.344l18.52-18.52l-12.352-15.096c4.312-6.76,7.496-14.28,9.28-22.352l19.384-1.936v-26.192l-19.384-1.936
	c-1.784-8.064-4.968-15.592-9.28-22.344l12.352-15.096l-18.52-18.52l-15.08,12.344c-6.752-4.32-14.28-7.52-22.36-9.304
	l-1.936-19.344h-13.096h-0.112H148.48l-1.936,19.344c-8.072,1.792-15.608,4.984-22.352,9.304l-15.088-12.344l-18.52,18.52
	l12.36,15.096c-4.312,6.752-7.496,14.272-9.272,22.336L74.28,192.04v26.192L93.664,220.184z M119.24,205.136
	c0-23.416,18.984-42.4,42.4-42.4s42.4,18.984,42.4,42.4s-18.984,42.4-42.4,42.4S119.24,228.552,119.24,205.136z"/>
<path style="fill:#666666;" d="M307.96,135.416c0,23.416,18.984,42.4,42.4,42.4c23.416,0,42.4-18.984,42.4-42.4
	s-18.984-42.4-42.4-42.4S307.96,112,307.96,135.416z M324.768,135.416c0-14.136,11.456-25.592,25.592-25.592
	s25.592,11.456,25.592,25.592s-11.456,25.592-25.592,25.592S324.768,149.552,324.768,135.416z"/>
<g>
	<path style="fill:#E21B1B;" d="M282.392,150.456c1.776,8.064,4.952,15.584,9.264,22.336l-12.36,15.104l18.52,18.52l15.088-12.344
		c6.76,4.328,14.296,7.52,22.36,9.304l1.936,19.344h13.096h0.112h13.096l1.936-19.344c8.08-1.784,15.608-4.976,22.368-9.304
		l15.08,12.344l18.52-18.52L409.056,172.8c4.312-6.76,7.496-14.28,9.28-22.352l19.384-1.936V122.32l-19.384-1.936
		c-1.784-8.064-4.968-15.592-9.28-22.344l12.352-15.096l-18.52-18.52l-15.08,12.344c-6.752-4.32-14.28-7.52-22.36-9.304
		l-1.936-19.344h-13.096h-0.112h-13.096l-1.936,19.344c-8.072,1.792-15.608,4.984-22.352,9.304l-15.088-12.344l-18.52,18.52
		l12.36,15.096c-4.312,6.752-7.496,14.272-9.272,22.336l-19.392,1.936v26.192L282.392,150.456z M307.968,135.408
		c0-23.416,18.984-42.4,42.4-42.4s42.4,18.984,42.4,42.4s-18.984,42.4-42.4,42.4S307.968,158.824,307.968,135.408z"/>
	<path style="fill:#E21B1B;" d="M304.648,328.576c0,14.08,11.416,25.496,25.496,25.496s25.496-11.416,25.496-25.496
		s-11.416-25.496-25.496-25.496C316.064,303.08,304.648,314.496,304.648,328.576z M314.76,328.576
		c0-8.496,6.888-15.392,15.392-15.392c8.496,0,15.392,6.888,15.392,15.392s-6.888,15.392-15.392,15.392
		S314.76,337.08,314.76,328.576z"/>
</g>
<path style="fill:#666666;" d="M289.272,337.624c1.064,4.848,2.976,9.368,5.568,13.432l-7.432,9.08l11.136,11.136l9.072-7.424
	c4.064,2.6,8.592,4.52,13.448,5.6l1.168,11.632h7.872h0.064h7.872l1.168-11.632c4.856-1.072,9.384-2.992,13.448-5.592l9.072,7.424
	l11.136-11.136l-7.424-9.072c2.592-4.064,4.512-8.584,5.576-13.44l11.656-1.168v-15.752l-11.656-1.168
	c-1.072-4.848-2.984-9.376-5.576-13.432l7.424-9.072l-11.136-11.136l-9.072,7.424c-4.064-2.6-8.592-4.52-13.448-5.592l-1.168-11.632
	h-7.872h-0.064h-7.872l-1.168,11.632c-4.856,1.08-9.384,3-13.44,5.592l-9.072-7.424l-11.136,11.136l7.432,9.08
	c-2.592,4.056-4.504,8.584-5.576,13.432l-11.656,1.168v15.752L289.272,337.624z M304.656,328.576
	c0-14.08,11.416-25.496,25.496-25.496s25.496,11.416,25.496,25.496s-11.416,25.496-25.496,25.496
	C316.072,354.072,304.656,342.656,304.656,328.576z"/>
<g>
</g>
<g>
</g>
<g>
</g>
<g>
</g>
<g>
</g>
<g>
</g>
<g>
</g>
<g>
</g>
<g>
</g>
<g>
</g>
<g>
</g>
<g>
</g>
<g>
</g>
<g>
</g>
<g>
</g>
</svg>
