<?xml version="1.0" encoding="iso-8859-1"?>
<!-- Generator: Adobe Illustrator 19.0.0, SVG Export Plug-In . SVG Version: 6.00 Build 0)  -->
<svg version="1.1" id="Layer_1" xmlns="http://www.w3.org/2000/svg" xmlns:xlink="http://www.w3.org/1999/xlink" x="0px" y="0px"
	 viewBox="0 0 512 512" style="enable-background:new 0 0 512 512;" xml:space="preserve">
<g>
	<path style="fill:#CCCCCC;" d="M504,8v496H8V8H504 M512,0H0v512h512V0L512,0z"/>
	<rect x="0.088" y="252" style="fill:#CCCCCC;" width="511.832" height="8"/>
	<rect x="252" y="0.088" style="fill:#CCCCCC;" width="8" height="511.832"/>
</g>
<path style="fill:#FC3535;" d="M256,64.224L256,64.224c-40.584,42.672-99.68,49.304-132.52,49.304
	c-14.832,0-24.296-1.352-24.296-1.352s0,68.92,0,167.8S256,447.776,256,447.776V64.224z"/>
<path style="fill:#E21B1B;" d="M256,447.776c0,0,156.816-68.92,156.816-167.8s0-167.8,0-167.8s-9.464,1.352-24.296,1.352
	c-32.84,0-91.928-6.632-132.52-49.304l0,0L256,447.776L256,447.776z"/>
<g>
</g>
<g>
</g>
<g>
</g>
<g>
</g>
<g>
</g>
<g>
</g>
<g>
</g>
<g>
</g>
<g>
</g>
<g>
</g>
<g>
</g>
<g>
</g>
<g>
</g>
<g>
</g>
<g>
</g>
</svg>
