<svg version="1.1" id="Layer_1" xmlns="http://www.w3.org/2000/svg" xmlns:xlink="http://www.w3.org/1999/xlink" x="0px" y="0px"
	 viewBox="0 0 512 512" style="enable-background:new 0 0 512 512;" xml:space="preserve">
<path d="M0,365.6v-324C0,36,4.8,31.2,10.4,31.2h491.2c5.6,0,10.4,4.8,10.4,10.4v324H0z"/>
<g>
	<path style="fill:#BCBCBC;" d="M512,365.6v41.6c0,5.6-4.8,10.4-10.4,10.4H10.4c-5.6,0-10.4-4.8-10.4-10.4v-41.6H512z"/>
	<rect x="146.4" y="491.2" style="fill:#BCBCBC;" width="219.2" height="10.4"/>
</g>
<polygon style="fill:#333333;" points="328.8,491.2 183.2,491.2 193.6,417.6 318.4,417.6 "/>
<polygon points="318.4,417.6 193.6,417.6 187.792,458.68 320.272,430.824 "/>
<g>
	<rect x="20.8" y="52" style="fill:#FFFFFF;" width="470.4" height="292.8"/>
	<path style="fill:#FFFFFF;" d="M256,306.352c-79.392,0-143.976-64.584-143.976-143.976C112.024,82.992,176.608,18.4,256,18.4
		s143.976,64.584,143.976,143.968C399.976,241.76,335.392,306.352,256,306.352z"/>
</g>
<path style="fill:#E21B1B;" d="M256,26.4c74.976,0,135.976,61,135.976,135.976s-61,135.976-135.976,135.976
	s-135.976-61-135.976-135.976S181.024,26.4,256,26.4 M256,10.4c-83.936,0-151.976,68.04-151.976,151.976
	S172.064,314.352,256,314.352s151.976-68.04,151.976-151.976S339.936,10.4,256,10.4L256,10.4z"/>
<path style="fill:#FFFFFF;" d="M256,285.728c-68.024,0-123.36-55.336-123.36-123.36S187.976,39.016,256,39.016
	s123.36,55.336,123.36,123.36S324.024,285.728,256,285.728z"/>
<path style="fill:#CCCCCC;" d="M256,43.016c65.816,0,119.36,53.544,119.36,119.36S321.816,281.736,256,281.736
	s-119.36-53.544-119.36-119.36C136.64,96.56,190.184,43.016,256,43.016 M256,35.016c-70.336,0-127.36,57.024-127.36,127.36
	s57.024,127.36,127.36,127.36s127.36-57.024,127.36-127.36C383.36,92.032,326.336,35.016,256,35.016L256,35.016z"/>
<path d="M154.256,155.976l69.408-32.248v15.328l-52.496,22.992v0.288l52.496,22.992v15.328l-69.408-32.248L154.256,155.976
	L154.256,155.976z"/>
<path d="M234.384,206.448L265.328,101.6h14.608l-30.944,104.84h-14.608V206.448z"/>
<path d="M357.744,168.848l-69.408,31.816v-15.328l53.648-22.992v-0.288l-53.648-22.992v-15.328l69.408,31.816V168.848z"/>
<g>
</svg>
