<svg xmlns="http://www.w3.org/2000/svg" viewBox="0 0 1171.03 1352.58"><defs><style>.cls-1{fill:#999;}.cls-2{fill:none;stroke:#999;}</style></defs><title>хрень</title><g id="Слой_2" data-name="Слой 2"><g id="Слой_1-2" data-name="Слой 1"><path id="Фигура_4" data-name="Фигура 4" class="cls-1" d="M212.88,939.5v-1h348v1Zm398,0v-1h351v1Zm-544-1h96v1h-96Zm363-132v1h-363v-1Zm-267,133h-96m850-133v1h-174v-1Zm253-553h1v300h-1Zm-1052-252V.5h348v1Zm398,0V.5h351v1Zm-105,1351v-1h351v1Zm401,0v-1h199v1Zm358-256h1v97h-1Z"/><path id="_1" data-name=" 1" class="cls-2" d="M917.33.5c139.73,0,253,113.27,253,253"/><path id="_2" data-name=" 2" class="cls-2" d="M916.88,806.92c139.73,0,253.5-113.77,253.5-253.5"/><path id="_3" data-name=" 3" class="cls-2" d="M66.88,939C30.22,939,.5,909.45.5,873s29.72-66,66.38-66"/><path id="Эллипс_2" data-name="Эллипс 2" class="cls-2" d="M1012,939.11a158.5,158.5,0,0,1,158.5,158.5"/><path id="_5" data-name=" 5" class="cls-2" d="M1010.88,1352.08c87.81,0,159.61-71.32,159.61-158.58"/></g></g></svg>