<?xml version="1.0" encoding="utf-8"?>
<!-- Generator: Adobe Illustrator 21.0.0, SVG Export Plug-In . SVG Version: 6.00 Build 0)  -->
<svg version="1.1" id="Capa_1" xmlns="http://www.w3.org/2000/svg" xmlns:xlink="http://www.w3.org/1999/xlink" x="0px" y="0px"
	 viewBox="0 0 71.5 97.1" style="enable-background:new 0 0 71.5 97.1;" xml:space="preserve">
<style type="text/css">
	.st0{fill:#E53935;}
</style>
<g>
	<path class="st0" d="M35.7,0C16,0,0,16,0,35.7c0,5.1,1.1,10.1,3.1,14.6c8.9,19.6,26.1,40.2,31.1,46.1c0.4,0.4,0.9,0.7,1.5,0.7
		s1.1-0.3,1.5-0.7c5-5.9,22.2-26.5,31.1-46.1c2.1-4.5,3.1-9.5,3.1-14.6C71.5,16,55.5,0,35.7,0z M35.7,54.3
		c-10.2,0-18.6-8.3-18.6-18.6c0-10.2,8.3-18.6,18.6-18.6s18.6,8.3,18.6,18.6C54.3,46,46,54.3,35.7,54.3z"/>
</g>
</svg>
