<?xml version="1.0" encoding="iso-8859-1"?>
<!-- Generator: Adobe Illustrator 19.0.0, SVG Export Plug-In . SVG Version: 6.00 Build 0)  -->
<svg version="1.1" id="Layer_1" xmlns="http://www.w3.org/2000/svg" xmlns:xlink="http://www.w3.org/1999/xlink" x="0px" y="0px"
	 viewBox="0 0 512 512" style="enable-background:new 0 0 512 512;" xml:space="preserve">
<path d="M0,355.2v-324c0-5.6,4.8-10.4,10.4-10.4h491.2c5.6,0,10.4,4.8,10.4,10.4v324H0z"/>
<g>
	<path style="fill:#BCBCBC;" d="M512,355.2v41.6c0,5.6-4.8,10.4-10.4,10.4H10.4c-5.6,0-10.4-4.8-10.4-10.4v-41.6H512z"/>
	<rect x="146.4" y="480.8" style="fill:#BCBCBC;" width="219.2" height="10.4"/>
</g>
<polygon style="fill:#333333;" points="328.8,480.8 183.2,480.8 193.6,407.2 318.4,407.2 "/>
<polygon points="318.4,407.2 193.6,407.2 187.792,448.28 320.272,420.424 "/>
<rect x="20.8" y="41.6" style="fill:#FFFFFF;" width="470.4" height="292.8"/>
<g style="opacity:0.18;">
	<path style="fill:#BCBCBC;" d="M122.944,101.784v-11.4l-8.44-0.848c-0.776-3.512-2.16-6.784-4.04-9.728l5.376-6.576l-8.064-8.064
		l-6.568,5.376c-2.936-1.88-6.216-3.272-9.728-4.048l-0.832-8.416h-5.704h-0.048h-5.704l-0.84,8.424
		c-3.52,0.776-6.792,2.168-9.736,4.048l-6.568-5.368l-8.056,8.056l5.376,6.568c-1.872,2.936-3.264,6.216-4.04,9.728l-8.44,0.848
		v11.4l8.44,0.84c0.776,3.512,2.16,6.784,4.04,9.728l-5.376,6.568l8.064,8.064l6.568-5.376c2.944,1.88,6.216,3.272,9.736,4.048
		l0.84,8.432h5.704h0.048h5.704l0.848-8.424c3.512-0.776,6.792-2.168,9.736-4.048l6.568,5.376l8.064-8.064l-5.376-6.576
		c1.872-2.936,3.264-6.216,4.032-9.72L122.944,101.784z M73.776,96.088c0-6.152,4.992-11.144,11.144-11.144
		s11.144,4.992,11.144,11.144s-4.992,11.144-11.144,11.144C78.768,107.224,73.776,102.24,73.776,96.088z"/>
	<path style="fill:#BCBCBC;" d="M465.112,257.704v-21.248l-15.728-1.576c-1.44-6.544-4.024-12.648-7.52-18.12l10.024-12.248
		l-15.024-15.024l-12.24,10.016c-5.48-3.504-11.592-6.096-18.136-7.544l-1.576-15.696h-10.624H394.2h-10.624L382,191.96
		c-6.552,1.448-12.664,4.04-18.144,7.544l-12.232-10.016L336.6,204.512l10.016,12.248c-3.496,5.48-6.08,11.584-7.528,18.128
		l-15.72,1.576v21.248l15.72,1.576c1.44,6.552,4.024,12.648,7.528,18.136L336.6,289.672l15.024,15.024l12.232-10.016
		c5.48,3.512,11.592,6.104,18.144,7.544l1.576,15.696H394.2h0.088h10.624l1.576-15.696c6.544-1.448,12.664-4.04,18.144-7.552
		l12.24,10.016l15.024-15.024l-10.024-12.256c3.496-5.48,6.08-11.576,7.512-18.12L465.112,257.704z M373.472,247.088
		c0-11.464,9.296-20.768,20.768-20.768c11.464,0,20.76,9.296,20.76,20.768c0,11.472-9.296,20.768-20.76,20.768
		C382.768,267.856,373.472,258.56,373.472,247.088z"/>
	<path style="fill:#BCBCBC;" d="M304.152,294.04v-5.504l-4.08-0.408c-0.376-1.696-1.04-3.28-1.952-4.696l2.6-3.176l-3.896-3.896
		l-3.176,2.592c-1.416-0.904-3-1.576-4.704-1.96l-0.408-4.072h-2.752h-0.024h-2.752l-0.408,4.072
		c-1.696,0.376-3.28,1.048-4.704,1.96l-3.168-2.592l-3.896,3.896l2.6,3.176c-0.904,1.416-1.576,3-1.952,4.696l-4.072,0.408v5.504
		l4.072,0.408c0.376,1.696,1.04,3.28,1.952,4.704l-2.6,3.176l3.896,3.896l3.168-2.592c1.424,0.912,3.008,1.584,4.704,1.96
		l0.408,4.072h2.752h0.024h2.752l0.408-4.072c1.696-0.376,3.28-1.048,4.704-1.96l3.176,2.592l3.896-3.896l-2.6-3.176
		c0.904-1.416,1.576-3,1.952-4.696L304.152,294.04z M280.4,291.288c0-2.976,2.408-5.384,5.384-5.384s5.384,2.408,5.384,5.384
		s-2.408,5.384-5.384,5.384C282.808,296.664,280.4,294.256,280.4,291.288z"/>
	<path style="fill:#BCBCBC;" d="M285.784,79.192v-5.504l-4.08-0.408c-0.376-1.696-1.04-3.28-1.952-4.696l2.6-3.176l-3.896-3.896
		l-3.176,2.592c-1.416-0.904-3-1.576-4.704-1.96l-0.4-4.064h-2.752H267.4h-2.752l-0.408,4.072c-1.696,0.376-3.28,1.048-4.704,1.96
		l-3.168-2.592l-3.896,3.896l2.6,3.176c-0.912,1.408-1.584,2.992-1.952,4.688l-4.08,0.408v5.504l4.08,0.408
		c0.376,1.696,1.04,3.28,1.952,4.704l-2.6,3.176l3.896,3.896l3.168-2.592c1.424,0.912,3.008,1.584,4.704,1.96l0.408,4.072h2.752
		h0.024h2.752l0.408-4.072c1.696-0.376,3.28-1.048,4.704-1.96l3.176,2.592l3.896-3.896l-2.6-3.176c0.904-1.416,1.576-3,1.952-4.696
		L285.784,79.192z M262.032,76.44c0-2.976,2.408-5.384,5.384-5.384s5.384,2.408,5.384,5.384c0,2.976-2.408,5.384-5.384,5.384
		C264.44,81.824,262.032,79.416,262.032,76.44z"/>
	<path style="fill:#BCBCBC;" d="M462.704,94.776v-8.752l-6.48-0.648c-0.592-2.696-1.656-5.208-3.096-7.464l4.128-5.048l-6.192-6.192
		l-5.04,4.128c-2.256-1.44-4.776-2.512-7.472-3.112l-0.648-6.464h-4.384h-0.04h-4.376l-0.648,6.456
		c-2.704,0.6-5.216,1.664-7.48,3.112l-5.04-4.128l-6.192,6.192l4.128,5.048c-1.44,2.256-2.504,4.776-3.104,7.472l-6.48,0.648v8.752
		l6.48,0.648c0.592,2.696,1.656,5.216,3.104,7.472l-4.128,5.048l6.192,6.192l5.04-4.128c2.256,1.448,4.776,2.512,7.48,3.112
		l0.648,6.464h4.376h0.04h4.376l0.648-6.464c2.696-0.6,5.216-1.664,7.48-3.112l5.04,4.128l6.192-6.192l-4.128-5.048
		c1.44-2.256,2.504-4.768,3.096-7.464L462.704,94.776z M424.944,90.4c0-4.728,3.832-8.56,8.56-8.56s8.552,3.832,8.552,8.56
		s-3.832,8.56-8.552,8.56C428.776,98.952,424.944,95.12,424.944,90.4z"/>
	<path style="fill:#BCBCBC;" d="M133.08,268.768V257.52l-8.328-0.832c-0.76-3.464-2.128-6.696-3.984-9.592l5.304-6.48l-7.952-7.952
		l-6.48,5.304c-2.896-1.856-6.136-3.224-9.6-3.992l-0.832-8.304h-5.624h-0.048H89.92l-0.832,8.304
		c-3.472,0.768-6.704,2.136-9.6,3.992l-6.472-5.296l-7.952,7.952l5.304,6.48c-1.848,2.896-3.216,6.128-3.984,9.592l-8.32,0.832
		v11.248l8.32,0.832c0.76,3.464,2.128,6.696,3.984,9.6l-5.304,6.48l7.952,7.952l6.472-5.296c2.904,1.856,6.136,3.232,9.608,3.992
		l0.832,8.304h5.624H95.6h5.624l0.832-8.304c3.464-0.768,6.704-2.136,9.6-4l6.48,5.304l7.952-7.952l-5.312-6.488
		c1.848-2.896,3.216-6.128,3.976-9.592L133.08,268.768z M84.576,263.152c0-6.072,4.92-10.992,10.992-10.992
		s10.992,4.92,10.992,10.992s-4.92,10.992-10.992,10.992C89.496,274.144,84.576,269.224,84.576,263.152z"/>
</g>
<g>
	<path style="fill:#222020;" d="M371.296,252.96h-5.6v-4h1.6v-2.4h4V252.96z M357.696,252.96h-8v-4h8V252.96z M341.696,252.96h-8v-4
		h8V252.96z M325.696,252.96h-8v-4h8V252.96z M309.696,252.96h-8v-4h8V252.96z M293.696,252.96h-8v-4h8V252.96z M277.696,252.96h-8
		v-4h8V252.96z M261.696,252.96h-8v-4h8V252.96z M245.696,252.96h-8v-4h8V252.96z M371.296,238.56h-4v-8h4V238.56z M371.296,222.56
		h-4v-8h4V222.56z M371.296,206.56h-4v-8h4V206.56z"/>
	<path style="fill:#222020;" d="M347.872,103.216l-0.024-4h0.024V103.216z M339.848,103.216h-8v-4h8V103.216z M323.848,103.216h-8
		v-4h8V103.216z M307.848,103.216h-8v-4h8V103.216z M291.848,103.216h-8v-4h8V103.216z M275.848,103.216h-8v-4h8V103.216z
		 M259.848,103.216h-8v-4h8V103.216z M243.848,103.216h-8v-4h8V103.216z M227.848,103.216h-8v-4h8V103.216z M211.848,103.216h-8v-4
		h8V103.216z M195.848,103.216h-8v-4h8V103.216z"/>
</g>
<path style="fill:#E21B1B;" d="M177.544,141.568c-27.648,0-50.064,22.416-50.064,50.064s22.416,50.064,50.064,50.064
	s50.064-22.416,50.064-50.064S205.192,141.568,177.544,141.568z M177.544,221.856c-16.688,0-30.216-13.528-30.216-30.216
	s13.528-30.216,30.216-30.216s30.216,13.528,30.216,30.216S194.232,221.856,177.544,221.856z"/>
<path style="fill:#FFFFFF;" d="M280.688,207.088V176.16l-22.896-2.288c-2.096-9.528-5.864-18.408-10.952-26.376l14.592-17.824
	l-21.864-21.864l-17.808,14.576c-7.968-5.096-16.864-8.872-26.392-10.984l-2.288-22.84h-15.464h-0.128h-15.464l-2.288,22.84
	c-9.536,2.112-18.432,5.88-26.408,10.984l-17.808-14.568L93.656,129.68l14.584,17.824c-5.088,7.968-8.848,16.856-10.952,26.384
	l-22.88,2.288v30.928l22.88,2.288c2.096,9.528,5.864,18.408,10.952,26.392l-14.584,17.824l21.864,21.864l17.808-14.568
	c7.984,5.104,16.872,8.88,26.408,10.984l2.288,22.84h15.464h0.128h15.464l2.288-22.84c9.528-2.112,18.424-5.88,26.408-10.992
	l17.808,14.576l21.864-21.864l-14.592-17.832c5.088-7.968,8.848-16.848,10.936-26.368L280.688,207.088z M177.536,241.688
	c-27.648,0-50.064-22.416-50.064-50.064s22.416-50.064,50.064-50.064s50.064,22.416,50.064,50.064S205.184,241.688,177.536,241.688z
	"/>
<path style="fill:#BCBCBC;" d="M194.888,296.72h-34.68l-2.32-23.216c-8.608-2.056-16.808-5.464-24.416-10.152l-18.096,14.808
	l-24.432-24.432l14.824-18.112c-4.68-7.616-8.08-15.808-10.128-24.392l-23.256-2.32V174.36l23.256-2.32
	c2.064-8.608,5.464-16.8,10.128-24.384l-14.824-18.112l24.432-24.432l18.096,14.808c7.6-4.68,15.8-8.088,24.408-10.152l2.32-23.216
	h34.68l2.32,23.216c8.616,2.064,16.816,5.472,24.4,10.152l18.104-14.816l24.432,24.432l-14.832,18.12
	c4.664,7.592,8.072,15.784,10.12,24.376l23.264,2.32v34.544l-23.256,2.336c-2.048,8.584-5.448,16.776-10.12,24.376l14.832,18.12
	l-24.432,24.432l-18.104-14.816c-7.6,4.68-15.8,8.096-24.408,10.16L194.888,296.72z M163.832,292.72h27.432l2.256-22.488
	l1.416-0.312c9.128-2.024,17.8-5.624,25.76-10.728l1.216-0.784l17.536,14.352l19.304-19.304l-14.368-17.544l0.784-1.224
	c5.08-7.96,8.672-16.616,10.672-25.728l0.312-1.416l22.528-2.272v-27.296l-22.528-2.256l-0.312-1.416
	c-2.008-9.12-5.608-17.776-10.688-25.728l-0.784-1.224l14.368-17.544l-19.304-19.304l-17.536,14.352l-1.216-0.784
	c-7.944-5.096-16.608-8.696-25.752-10.72l-1.416-0.312l-2.256-22.488h-27.432l-2.256,22.488l-1.416,0.312
	c-9.136,2.016-17.8,5.624-25.76,10.72l-1.216,0.784l-17.528-14.344l-19.304,19.304l14.352,17.536l-0.784,1.224
	c-5.072,7.936-8.664,16.6-10.688,25.736l-0.312,1.416l-22.52,2.256v27.296l22.52,2.256l0.312,1.416
	c2.008,9.104,5.6,17.768,10.688,25.744l0.776,1.224l-14.344,17.536l19.304,19.304l17.528-14.344l1.224,0.784
	c7.968,5.104,16.64,8.712,25.768,10.72l1.416,0.312L163.832,292.72z M177.536,243.688c-28.712,0-52.072-23.352-52.072-52.064
	s23.36-52.064,52.072-52.064s52.064,23.352,52.064,52.064S206.248,243.688,177.536,243.688z M177.536,143.56
	c-26.504,0-48.072,21.56-48.072,48.064s21.56,48.064,48.072,48.064c26.496,0,48.064-21.56,48.064-48.064
	S204.04,143.56,177.536,143.56z"/>
<path d="M369.96,108.736c-18.136,0-32.832,14.704-32.832,32.832S351.832,174.4,369.96,174.4s32.832-14.704,32.832-32.832
	S388.096,108.736,369.96,108.736z M369.96,161.384c-10.944,0-19.816-8.872-19.816-19.816s8.872-19.816,19.816-19.816
	s19.816,8.872,19.816,19.816S380.904,161.384,369.96,161.384z"/>
<path style="fill:#E21B1B;" d="M437.608,151.704v-20.28l-15.016-1.504c-1.376-6.248-3.848-12.072-7.184-17.296l9.568-11.688
	l-14.344-14.344l-11.68,9.56c-5.224-3.344-11.064-5.816-17.312-7.2l-1.504-14.984h-10.144h-0.072h-10.144l-1.504,14.984
	c-6.256,1.384-12.088,3.856-17.32,7.2l-11.68-9.56l-14.344,14.344l9.56,11.688c-3.336,5.224-5.808,11.056-7.184,17.304
	l-15.008,1.504v20.28l15.008,1.504c1.376,6.248,3.848,12.072,7.184,17.304l-9.56,11.688l14.344,14.344l11.68-9.56
	c5.232,3.352,11.064,5.824,17.32,7.2l1.504,14.984h10.144h0.088h10.144l1.504-14.984c6.248-1.384,12.088-3.856,17.32-7.208
	l11.68,9.56L425,182.2l-9.568-11.696c3.336-5.224,5.8-11.048,7.176-17.296L437.608,151.704z M369.96,174.392
	c-18.136,0-32.832-14.704-32.832-32.832s14.704-32.832,32.832-32.832s32.832,14.704,32.832,32.832S388.088,174.392,369.96,174.392z"
	/>
<g>
</g>
<g>
</g>
<g>
</g>
<g>
</g>
<g>
</g>
<g>
</g>
<g>
</g>
<g>
</g>
<g>
</g>
<g>
</g>
<g>
</g>
<g>
</g>
<g>
</g>
<g>
</g>
<g>
</g>
</svg>
